<svg width="484" height="440" viewBox="0 0 484 440" fill="none" xmlns="http://www.w3.org/2000/svg">
<path d="M244.53 440C366.033 440 464.53 341.503 464.53 220C464.53 98.4974 366.033 0 244.53 0C123.027 0 24.53 98.4974 24.53 220C24.53 341.503 123.027 440 244.53 440Z" fill="#FFF7E9"/>
<mask id="mask0_212_492" style="mask-type:alpha" maskUnits="userSpaceOnUse" x="24" y="0" width="441" height="440">
<path d="M244.53 440C366.033 440 464.53 341.503 464.53 220C464.53 98.4974 366.033 0 244.53 0C123.027 0 24.53 98.4974 24.53 220C24.53 341.503 123.027 440 244.53 440Z" fill="#FFF7E9"/>
</mask>
<g mask="url(#mask0_212_492)">
<path d="M237.381 334.573L237.357 334.541C234.467 330.64 228.962 329.822 225.061 332.712L193.141 356.367C189.24 359.257 188.422 364.762 191.312 368.662L191.336 368.694C194.226 372.595 199.731 373.414 203.631 370.523L235.552 346.869C239.452 343.978 240.271 338.473 237.381 334.573Z" fill="#1746A2"/>
<path d="M296.85 371.021L296.877 370.992C300.155 367.411 299.909 361.851 296.328 358.573L267.022 331.747C263.441 328.469 257.881 328.715 254.603 332.296L254.576 332.325C251.298 335.906 251.544 341.466 255.125 344.744L284.431 371.57C288.012 374.848 293.572 374.602 296.85 371.021Z" fill="#1746A2"/>
<path d="M262.02 370.455L262.028 370.45C265.348 368.534 266.485 364.29 264.569 360.97L232.389 305.233C230.472 301.914 226.228 300.776 222.908 302.693L222.9 302.698C219.58 304.614 218.443 308.859 220.36 312.178L252.54 367.915C254.456 371.235 258.7 372.372 262.02 370.455Z" fill="#1746A2"/>
<path d="M118.86 149.05C133.55 149.05 145.46 137.14 145.46 122.45C145.46 107.76 133.55 95.8496 118.86 95.8496C104.17 95.8496 92.2599 107.76 92.2599 122.45C92.2599 137.14 104.17 149.05 118.86 149.05V149.05Z" fill="#1746A2"/>
<path d="M233.48 149.77C231.25 142.51 223.56 138.43 216.3 140.65C215.75 140.82 161.08 157.39 113.13 157.39C65.18 157.39 18.04 143.97 17.57 143.83C10.27 141.73 2.64997 145.93 0.539973 153.22C-1.57003 160.51 2.62997 168.14 9.92997 170.25C11.48 170.7 39.58 178.72 75.47 182.69C78.4 183.01 80.59 185.56 80.44 188.51L76.48 269.08C76.43 270 76.27 270.9 76 271.78L48.63 359.37C47.06 364.39 50.55 369.95 56.43 371.79L59.85 372.86C65.73 374.7 71.76 372.11 73.33 367.09L102.59 273.44C103.06 271.95 104.44 270.93 106 270.93H129.72C131.53 270.93 133.05 272.28 133.27 274.07L144.56 367.5C145.19 372.73 151.02 376.32 157.58 375.53L161.39 375.07C167.95 374.28 172.75 369.4 172.12 364.17L160.85 270.92C160.85 270.92 158.23 205.34 157.48 186.5C157.37 183.66 159.41 181.2 162.22 180.77C195.74 175.63 222.72 167.45 224.35 166.94C231.62 164.71 235.69 157.03 233.47 149.76L233.48 149.77Z" fill="#1746A2"/>
<path d="M391.52 122.45C391.52 107.76 379.61 95.8496 364.92 95.8496C350.23 95.8496 338.32 107.76 338.32 122.45C338.32 137.14 350.23 149.05 364.92 149.05C379.61 149.05 391.52 137.14 391.52 122.45V122.45Z" fill="#1746A2"/>
<path d="M250.3 149.77C252.53 142.51 260.22 138.43 267.48 140.65C268.03 140.82 322.7 157.39 370.65 157.39C418.6 157.39 465.74 143.97 466.21 143.83C473.51 141.73 481.13 145.93 483.24 153.22C485.35 160.51 481.15 168.14 473.85 170.25C472.3 170.7 444.2 178.72 408.31 182.69C405.38 183.01 403.19 185.56 403.34 188.51L407.3 269.08C407.35 270 407.51 270.9 407.78 271.78L435.15 359.37C436.72 364.39 433.23 369.95 427.35 371.79L423.93 372.86C418.05 374.7 412.02 372.11 410.45 367.09L381.19 273.44C380.72 271.95 379.34 270.93 377.78 270.93H354.06C352.25 270.93 350.73 272.28 350.51 274.07L339.22 367.5C338.59 372.73 332.76 376.32 326.2 375.53L322.39 375.07C315.83 374.28 311.03 369.4 311.66 364.17L322.93 270.92C322.93 270.92 325.55 205.34 326.3 186.5C326.41 183.66 324.37 181.2 321.56 180.77C288.04 175.63 261.06 167.45 259.43 166.94C252.16 164.71 248.09 157.03 250.31 149.76L250.3 149.77Z" fill="#1746A2"/>
<path d="M239.13 86.0293V115.029" stroke="#FF741D" stroke-width="5" stroke-linecap="round"/>
<path d="M210.13 90.0293L221.5 117.669" stroke="#FF741D" stroke-width="5" stroke-linecap="round"/>
<path d="M256.76 117.669L268.13 90.0293" stroke="#FF741D" stroke-width="5" stroke-linecap="round"/>
<path d="M240.99 349.579C278.38 349.579 294.58 326.189 294.58 302.219C294.58 280.949 274.19 261.669 267.08 255.589C266.21 254.839 264.88 255.499 264.92 256.649C265.01 259.219 264.78 262.469 263.01 262.339C259.85 262.109 254.64 253.079 248.46 245.889C240.63 236.789 233.71 232.359 230.22 230.989C228.32 230.249 226.22 231.439 225.89 233.449C224.95 239.249 223.04 250.779 221.68 257.139C219.81 265.859 215.6 276.459 212.33 276.459C210.08 276.459 209.82 270.579 209.88 266.899C209.9 265.759 208.55 265.139 207.7 265.899C202.52 270.539 190.37 283.489 190.37 303.099C190.37 325.519 206.12 349.579 241 349.579H240.99Z" fill="url(#paint0_radial_212_492)"/>
<path d="M239.03 298.409L227.96 316.969C222.95 325.379 223.9 335.299 234.68 339.229C236.11 339.749 240.8 340.369 241.86 340.399C242.7 340.429 247.17 339.969 248.28 339.689C260.6 336.609 262.6 325.629 256.75 316.619L244.88 298.319C243.65 296.429 240.19 296.479 239.05 298.399L239.03 298.409Z" fill="#FFF7E9"/>
</g>
<defs>
<radialGradient id="paint0_radial_212_492" cx="0" cy="0" r="1" gradientUnits="userSpaceOnUse" gradientTransform="translate(240.25 311.779) scale(36.85 36.85)">
<stop stop-color="#FFF8E2"/>
<stop offset="1" stop-color="#FF741D"/>
</radialGradient>
</defs>
</svg>
